<svg width="60" height="50" viewBox="0 0 60 50" fill="none" xmlns="http://www.w3.org/2000/svg">
<g clip-path="url(#clip0_2009_2114)">
<path fill-rule="evenodd" clip-rule="evenodd" d="M24.494 34.3041C25.4309 38.7045 28.487 41.8224 32.3842 43.7169C36.7544 45.8397 42.1781 46.3904 46.6555 45.56C48.2001 45.2008 49.684 44.6951 51.1265 44.0408C53.2005 43.0982 55.1714 41.8914 57.0922 40.5503C57.2826 40.4348 57.3415 40.1904 57.2297 40.0096C57.1134 39.8262 56.8693 39.774 56.676 39.8942C55.0115 40.785 53.3272 41.5705 51.5984 42.2123C49.8799 42.847 48.1343 43.3097 46.3305 43.5329C42.2833 44.2284 37.4044 43.6499 33.4794 41.7024C30.255 40.1018 27.6697 37.5506 26.8506 33.9317C27.8395 33.7264 28.8093 33.454 29.7417 33.0856C31.5446 32.3714 33.213 31.3067 34.6229 29.6914C35.6141 28.5567 36.6923 26.7277 36.9275 25.0711C37.1367 23.5951 36.7334 22.2481 35.3997 21.3649C32.7338 19.6057 30.1216 20.5357 28.0546 22.7273C25.7251 25.2022 24.1775 29.3578 24.225 32.0374C23.2476 32.1547 22.2634 32.2243 21.2939 32.2893C17.2854 32.5471 13.3012 31.3468 10.0121 28.9561C6.96364 26.7416 4.50862 23.5136 3.17598 19.487C2.05196 16.2603 2.16273 12.8187 2.75281 9.70315C3.16023 7.5374 3.8349 5.54353 4.53775 3.84809C5.17696 2.30635 5.78266 1.0166 6.47076 0.143081C6.50271 0.110322 6.50607 0.0555708 6.47135 0.0239321C6.43663 -0.00770665 6.38182 -0.0063682 6.34986 0.0263915C5.4125 0.737902 4.34164 1.81628 3.38102 3.29474C2.30683 4.94979 1.41643 7.05159 0.815764 9.33761C-0.0766316 12.7525 -0.165933 16.602 0.964442 20.2221C2.4428 24.7185 5.18235 28.3166 8.57684 30.7902C12.3096 33.5062 16.838 34.867 21.3914 34.5814C22.4068 34.5101 23.4516 34.4298 24.494 34.3041ZM26.5841 31.6411C27.3705 31.463 28.1427 31.2393 28.8868 30.9436C30.3352 30.368 31.6774 29.514 32.812 28.2129C33.4307 27.5025 34.1105 26.4358 34.4213 25.374C34.6545 24.5776 34.724 23.7544 34.0122 23.2881C32.4652 22.2626 30.987 22.9853 29.7866 24.2567C27.9344 26.214 26.6455 29.4426 26.5841 31.6411Z" fill="#E8EDFF"/>
<path fill-rule="evenodd" clip-rule="evenodd" d="M56.4839 40.0203C55.9911 40.6042 55.4966 41.181 55.0054 41.772C54.4308 42.4608 53.8533 43.1542 53.3116 43.8672C51.9198 45.6915 50.6582 47.5561 49.3641 49.4153C49.2246 49.5757 49.2397 49.8147 49.4026 49.9478C49.5656 50.0809 49.8107 50.0595 49.9502 49.899C51.3688 48.607 52.8181 47.3817 54.242 46.0614C54.8456 45.5008 55.4403 44.9354 56.0079 44.3363C57.2755 42.9989 58.4191 41.5623 59.5453 40.1347C59.6815 39.96 59.8708 39.6398 59.9459 39.3505C60.0292 39.0283 60.007 38.723 59.9063 38.4682C59.8089 38.2277 59.6206 37.9311 59.1789 37.7573C58.9818 37.6803 58.5375 37.5987 57.9112 37.6105C55.859 37.6569 50.8478 38.3683 49.8134 38.493L47.7928 38.8685C47.6787 38.8994 47.507 38.9175 47.3502 39.0185C47.1409 39.1469 46.9012 39.296 46.8072 39.4502C46.736 39.5671 46.9064 39.6294 46.8163 39.6111C46.7469 39.598 46.8376 39.7226 46.8543 39.6756C46.9127 39.5018 46.9495 39.8027 47.0129 39.7377C47.1788 39.573 47.0179 39.9151 47.1896 39.897C47.2542 39.8888 47.1542 39.9649 47.222 39.9709C47.3149 39.9845 47.1338 40.0472 47.2303 40.094C47.2883 40.1258 47.1369 40.13 47.1997 40.1832C47.2447 40.2266 47.0683 40.1547 47.1286 40.2315C47.1845 40.3058 47.0573 40.1923 47.0573 40.1923C47.0573 40.1923 47.0795 40.2731 46.9742 40.0844C47.0104 40.0544 47.0137 40.0001 46.9793 39.9687C46.9477 39.9327 46.8933 39.934 46.8571 39.964C46.388 39.6692 46.7877 39.9509 46.5784 39.9233C46.5017 39.9124 46.5884 39.985 46.5356 39.9934C46.2543 40.0448 46.6674 40.1093 46.5543 40.2656C46.5099 40.3285 46.6411 40.2696 46.6118 40.347C46.56 40.4807 46.7483 40.2598 46.7918 40.452C46.8144 40.5517 46.8573 40.3445 46.9796 40.5052C47.0659 40.6274 46.9499 40.5637 47.2164 40.6538C47.4075 40.7212 47.8067 40.6035 47.9836 40.6258L49.9701 40.5309C50.7953 40.4661 54.1772 40.1328 56.4839 40.0203Z" fill="#E8EDFF"/>
</g>
<defs>
<clipPath id="clip0_2009_2114">
<rect width="60" height="50" fill="white"/>
</clipPath>
</defs>
</svg>
