<svg width="20" height="18" viewBox="0 0 20 18" fill="none" xmlns="http://www.w3.org/2000/svg">
<path d="M0.0709647 5.16249C0.459413 6.98368 2.09477 8.35485 4.04761 8.35485C6.26714 8.35485 8.07285 6.54914 8.07285 4.3296C8.07285 3.86906 7.99614 3.41934 7.8492 2.99504L0.0709647 5.16249ZM20 4.95323C20 4.62934 19.7374 4.36675 19.4135 4.36675H10.5771C10.2532 4.36675 9.99066 4.62934 9.99066 4.95323V6.86908H20V4.95323ZM8.73949 9.9579C8.73949 10.2818 9.00208 10.5444 9.32597 10.5444H10.7934C10.1682 11.3812 9.509 11.8301 8.82652 11.8809C7.72432 11.9634 6.77895 10.9917 6.50877 10.6838C6.3846 10.1572 6.22309 9.64015 6.02547 9.13651C5.41545 9.38843 4.74752 9.52782 4.04761 9.52782C3.36623 9.52782 2.71488 9.39789 2.11721 9.16185C1.68548 10.1929 1.27158 11.6394 1.27158 13.3986V17.1521C1.27158 17.476 1.53417 17.7386 1.85806 17.7386H6.23715C6.56105 17.7386 6.82364 17.476 6.82364 17.1521V13.3986C6.82364 13.0734 6.8103 12.759 6.78626 12.4557C7.30627 12.7861 7.95821 13.0588 8.69351 13.0588C8.76342 13.0588 8.83415 13.0564 8.9055 13.0513C10.1396 12.9628 11.2481 12.1197 12.2037 10.5444H18.0842C18.408 10.5444 18.6706 10.2818 18.6706 9.9579V8.04205H8.73949V9.9579ZM9.30443 0.768584C9.21747 0.456613 8.89428 0.274099 8.58204 0.361094L6.33494 0.987304C5.66638 0.515535 4.87557 0.261353 4.04761 0.261353C2.9725 0.261353 1.95464 0.687805 1.18145 1.46212C0.496831 2.1478 0.0850012 3.02553 0 3.96461L1.39345 3.57632C1.41976 3.57273 1.44612 3.56733 1.47239 3.56002L8.8969 1.49098C9.20895 1.40406 9.39139 1.08063 9.30443 0.768584Z" fill="#496192"/>
</svg>
