<svg width="20" height="20" viewBox="0 0 20 20" fill="none" xmlns="http://www.w3.org/2000/svg">
<path d="M5.21179 1.59546C5.83828 1.73636 6.29962 1.95578 6.64845 2.20957C8.18173 1.78404 9.95829 1.61272 11.6367 1.7774C9.93333 -0.146612 7.56797 -0.380485 5.14377 0.465151C4.56051 0.668603 4.63736 1.47964 5.21179 1.59546ZM2.72413 12.1765C3.88798 11.1607 5.21425 10.9284 6.66614 11.4859C8.01471 12.0205 10.2202 12.6518 12.2313 12.9758C12.0863 12.7477 12.085 12.7463 12.0752 12.7292C11.5327 11.7863 10.343 9.33931 11.0096 6.98824C11.4024 5.60274 12.3622 4.48804 13.8622 3.67505C13.8745 3.66818 13.8723 3.66943 14.1157 3.53623C12.2853 2.84367 10.2055 2.74347 8.28271 3.05282C6.54267 3.33118 5.6351 3.77014 4.78282 4.3334C0.639032 7.06876 -0.545288 10.778 0.218459 13.8915L0.218732 13.8923C1.11396 17.5382 4.85682 19.821 5.01572 19.9164C5.10495 19.97 5.20738 19.9999 5.32215 19.9999C5.48628 19.9999 6.51682 19.9652 7.23214 19.1227C7.86437 18.378 8.04431 17.2695 7.76682 15.828C7.69653 15.4624 7.30192 15.251 6.9552 15.4028C6.94551 15.407 5.97351 15.8259 4.78817 15.7815C3.36412 15.7278 2.24455 15.0421 1.45628 13.7422C1.65957 13.3887 2.08585 12.7335 2.72413 12.1765Z" fill="#496192"/>
<path d="M19.9927 11.7861C19.4775 8.42894 18.0076 5.67593 15.4196 4.15808C14.0546 4.905 14.5255 4.64754 14.4236 4.70315C13.2097 5.36021 12.4402 6.23654 12.1365 7.30777C11.594 9.22104 12.6128 11.3119 13.0841 12.1339L13.7414 13.1678C15.6998 13.3464 17.7319 13.2385 19.4485 12.5035C19.6527 12.416 19.798 12.365 19.9079 12.1927C19.9849 12.072 20.0151 11.9274 19.9927 11.7861ZM15.6312 8.71436C15.2933 8.71436 15.0405 8.44452 15.0405 8.12861C15.0405 7.81218 15.2938 7.54285 15.6312 7.54285C15.9547 7.54285 16.217 7.80511 16.217 8.12861C16.217 8.4521 15.9547 8.71436 15.6312 8.71436Z" fill="#496192"/>
</svg>
