<svg width="20" height="20" viewBox="0 0 20 20" fill="none" xmlns="http://www.w3.org/2000/svg">
<path d="M15.0006 0H5.00085C2.25117 0 0.000976562 2.25019 0.000976562 4.99988V15.0001C0.000976562 17.7491 2.25117 20 5.00085 20H15.0006C17.7503 20 20.0005 17.7491 20.0005 15.0001V4.99988C20.0005 2.25019 17.7503 0 15.0006 0ZM18.3338 15.0001C18.3338 16.8376 16.8391 18.3333 15.0006 18.3333H5.00085C3.16316 18.3333 1.66768 16.8376 1.66768 15.0001V4.99988C1.66768 3.16193 3.16316 1.66671 5.00085 1.66671H15.0006C16.8391 1.66671 18.3338 3.16193 18.3338 4.99988V15.0001Z" fill="#011845"/>
<path d="M15.4179 5.83319C16.1083 5.83319 16.6679 5.27356 16.6679 4.58322C16.6679 3.89288 16.1083 3.33325 15.4179 3.33325C14.7276 3.33325 14.168 3.89288 14.168 4.58322C14.168 5.27356 14.7276 5.83319 15.4179 5.83319Z" fill="#011845"/>
<path d="M10.0009 5C7.23891 5 5.00098 7.23818 5.00098 9.99988C5.00098 12.7606 7.23891 15.0002 10.0009 15.0002C12.762 15.0002 15.0007 12.7606 15.0007 9.99988C15.0007 7.23818 12.762 5 10.0009 5ZM10.0009 13.3335C8.16013 13.3335 6.66768 11.8411 6.66768 9.99988C6.66768 8.15866 8.16013 6.66671 10.0009 6.66671C11.8416 6.66671 13.334 8.15866 13.334 9.99988C13.334 11.8411 11.8416 13.3335 10.0009 13.3335Z" fill="#011845"/>
</svg>
