<svg width="7" height="14" viewBox="0 0 7 14" fill="none" xmlns="http://www.w3.org/2000/svg">
<path d="M4.65012 7.07098L0.318865 2.12098C0.159477 1.93238 0.0712816 1.67978 0.0732753 1.41758C0.0752689 1.15538 0.167292 0.904571 0.329524 0.719163C0.491756 0.533755 0.711217 0.428586 0.940639 0.426307C1.17006 0.424029 1.39109 0.524823 1.55612 0.706981L6.50599 6.36398C6.67003 6.55151 6.76218 6.80582 6.76218 7.07098C6.76218 7.33615 6.67003 7.59045 6.50599 7.77798L1.55612 13.435C1.39109 13.6171 1.17006 13.7179 0.940639 13.7157C0.711217 13.7134 0.491756 13.6082 0.329524 13.4228C0.167292 13.2374 0.0752689 12.9866 0.0732753 12.7244C0.0712816 12.4622 0.159477 12.2096 0.318865 12.021L4.65012 7.07098Z" fill="#E8EDFF"/>
</svg>
