<svg width="16" height="16" viewBox="0 0 16 16" fill="none" xmlns="http://www.w3.org/2000/svg">
<g clip-path="url(#clip0_2009_2237)">
<path d="M8.02906 0.875005C8.02906 1.22019 8.30887 1.50001 8.65406 1.50001C10.1502 1.50001 11.6464 2.07076 12.7878 3.21222C13.3505 3.77482 13.7734 4.41901 14.0569 5.10344C14.3523 5.81666 14.5 6.57988 14.5 7.34594C14.5 7.69113 14.7798 7.97094 15.125 7.97094C15.4702 7.97094 15.75 7.69113 15.75 7.34594C15.7498 6.41384 15.566 5.4909 15.2092 4.62979C14.8612 3.7896 14.3485 3.00532 13.6716 2.32841C12.286 0.942818 10.47 0.250005 8.65406 0.250005C8.30887 0.250005 8.02906 0.529818 8.02906 0.875005Z" fill="#496192"/>
<path d="M4.80281 7.11285C5.32137 7.93279 5.9314 8.69329 6.61968 9.38032C7.30671 10.0686 8.06721 10.6786 8.88718 11.1972C9.18665 11.3865 9.54643 11.3845 9.84375 11.192L10.9862 10.452C11.2301 10.2941 11.5083 10.264 11.7803 10.3661L15.1727 11.6389C15.704 11.8383 15.9143 12.4691 15.6087 12.9473L14.4742 14.7231C13.9563 15.5335 13.0255 15.9098 12.0901 15.6865C9.21078 14.9995 6.61968 13.5008 4.57046 11.4295C2.49918 9.38032 1.00056 6.78922 0.313463 3.90997C0.0902134 2.97451 0.466463 2.04369 1.27687 1.52588L3.05265 0.391286C3.53087 0.085755 4.16171 0.295974 4.36106 0.827255L5.6339 4.21972C5.73596 4.49166 5.70584 4.76991 5.54796 5.01379L4.80799 6.15629C4.61546 6.4536 4.61346 6.81338 4.80281 7.11285Z" fill="#496192"/>
<path d="M8.95624 6.62235C8.86268 6.5836 8.75978 6.56422 8.65406 6.56422C8.3089 6.56422 8.02906 6.28438 8.02906 5.93919C8.02906 5.59401 8.30887 5.31419 8.65406 5.31419C8.91515 5.31419 9.17912 5.36613 9.42987 5.46997C9.6735 5.57088 9.89881 5.71744 10.0907 5.90932C10.2826 6.10119 10.4291 6.32654 10.53 6.57013C10.6339 6.82088 10.6858 7.08485 10.6858 7.34594C10.6858 7.69113 10.406 7.97094 10.0608 7.97094C9.71562 7.97094 9.43581 7.69113 9.43581 7.34594C9.43581 7.24022 9.41643 7.13732 9.37768 7.04379C9.34131 6.95594 9.28449 6.87069 9.2069 6.79313C9.12931 6.71557 9.04409 6.65872 8.95624 6.62235Z" fill="#496192"/>
<path d="M9.9264 4.28276C9.51909 4.11404 9.08609 4.02969 8.65406 4.02969C8.31024 4.02969 8.03153 3.75097 8.03153 3.40716C8.03153 3.06335 8.31028 2.7846 8.65409 2.7846C9.24918 2.7846 9.84343 2.89988 10.4001 3.13044C10.942 3.35488 11.4468 3.6845 11.8812 4.11891C12.3155 4.55329 12.6452 5.0581 12.8696 5.60001C13.1002 6.15663 13.2155 6.75082 13.2155 7.34594C13.2155 7.68979 12.9367 7.96851 12.5929 7.96851C12.2491 7.96851 11.9703 7.68976 11.9703 7.34594C11.9703 6.90934 11.8843 6.47701 11.7173 6.07363C11.5573 5.68751 11.3174 5.32279 10.9973 5.00269C10.6772 4.68257 10.3125 4.44269 9.9264 4.28276Z" fill="#496192"/>
</g>
<defs>
<clipPath id="clip0_2009_2237">
<rect width="16" height="16" fill="white"/>
</clipPath>
</defs>
</svg>
