<svg width="8" height="14" viewBox="0 0 8 14" fill="none" xmlns="http://www.w3.org/2000/svg">
<path d="M2.41284 7L6.74409 11.95C6.82767 12.0422 6.89433 12.1526 6.94018 12.2746C6.98604 12.3966 7.01018 12.5278 7.01119 12.6606C7.0122 12.7934 6.99006 12.9251 6.94606 13.048C6.90207 13.1708 6.8371 13.2825 6.75494 13.3764C6.67278 13.4703 6.57509 13.5445 6.46755 13.5948C6.36002 13.6451 6.2448 13.6704 6.12862 13.6692C6.01244 13.6681 5.89762 13.6405 5.79087 13.5881C5.68411 13.5357 5.58756 13.4595 5.50684 13.364L0.556969 7.707C0.392932 7.51947 0.300781 7.26516 0.300781 7C0.300781 6.73483 0.392932 6.48053 0.556969 6.293L5.50684 0.635997C5.67187 0.453839 5.8929 0.353045 6.12232 0.355323C6.35174 0.357602 6.5712 0.462771 6.73344 0.648179C6.89567 0.833587 6.98769 1.0844 6.98968 1.3466C6.99168 1.60879 6.90348 1.8614 6.74409 2.05L2.41284 7Z" fill="#E8EDFF"/>
</svg>
