<svg width="34" height="28" viewBox="0 0 34 28" fill="none" xmlns="http://www.w3.org/2000/svg">
<path d="M10.4146 18.4995C10.8549 18.494 26.7234 18.4995 26.7234 18.4995C27.5691 18.5023 28.3934 18.2332 29.0748 17.732C29.7561 17.2307 30.2585 16.5238 30.5078 15.7155L33.7783 5.2481C33.8156 5.12936 33.8243 5.00351 33.8039 4.88074C33.7835 4.75798 33.7344 4.64175 33.6607 4.54147C33.587 4.44119 33.4908 4.35968 33.3797 4.30353C33.2687 4.24738 33.146 4.21817 33.0216 4.21827H7.45192C6.63569 1.60956 4.01408 0.0156153 1.29252 0.251256C0.262908 0.262363 0.247837 1.82775 1.29252 1.83806H2.00721C2.96147 1.84024 3.88584 2.17122 4.62469 2.77526C5.36354 3.37931 5.87176 4.21953 6.06378 5.15448L7.29724 15.0244C7.42176 16.0082 7.91126 16.9092 8.66873 17.549C6.9038 18.8835 7.56932 21.8842 9.72055 22.3681C8.36493 24.3659 9.96169 27.2999 12.3977 27.2269C14.7821 27.292 16.3948 24.4754 15.1288 22.4665H25.5303C24.262 24.4722 25.8794 27.2952 28.2622 27.2269C30.0121 27.2269 31.4351 25.8036 31.4351 24.0533C31.4351 22.3031 30.0121 20.8797 28.2622 20.8797H10.4146C8.85276 20.8504 8.84879 18.5289 10.4146 18.4995ZM7.74383 5.80507H31.9428L28.9944 15.2426C28.8445 15.7275 28.543 16.1515 28.1342 16.4522C27.7253 16.7528 27.2308 16.9143 26.7234 16.9127H11.2332C10.0355 16.9127 9.02013 16.0162 8.8718 14.8276L7.74383 5.80507ZM13.9841 24.0533C13.9469 26.1384 10.8477 26.1384 10.8112 24.0533C10.8485 21.9683 13.9477 21.9683 13.9841 24.0533ZM29.8487 24.0533C29.8114 26.1384 26.7131 26.1384 26.6758 24.0533C26.7131 21.9683 29.8114 21.9683 29.8487 24.0533Z" fill="#E8EDFF"/>
</svg>
