<svg width="20" height="20" viewBox="0 0 20 20" fill="none" xmlns="http://www.w3.org/2000/svg">
<path d="M1.63558 9.89509L5.66058 11.262L15.2175 5.41947C15.3562 5.33509 15.4981 5.52322 15.3787 5.63322L8.1437 12.2926L7.87495 16.0207C7.87056 16.0832 7.88526 16.1455 7.9171 16.1994C7.94893 16.2533 7.99641 16.2962 8.05322 16.3225C8.11003 16.3489 8.17349 16.3573 8.2352 16.3467C8.2969 16.3361 8.35392 16.307 8.3987 16.2632L10.6262 14.0726L14.6987 17.1551C15.1375 17.4876 15.7731 17.2532 15.8912 16.7157L18.7268 3.84072C18.8887 3.10635 18.1687 2.48635 17.4668 2.7551L1.61558 8.8251C1.11808 9.01572 1.13183 9.72385 1.63558 9.89509Z" fill="#011845"/>
</svg>
