<svg width="20" height="20" viewBox="0 0 20 20" fill="none" xmlns="http://www.w3.org/2000/svg">
<g clip-path="url(#clip0_2009_2268)">
<path d="M19.894 14.6C19.8698 14.5478 19.8472 14.5045 19.8262 14.4698C19.4792 13.8448 18.8161 13.0778 17.8373 12.1683L17.8166 12.1475L17.8063 12.1373L17.7958 12.1268H17.7853C17.341 11.7033 17.0597 11.4186 16.9419 11.2728C16.7264 10.9951 16.6781 10.714 16.7959 10.4292C16.8791 10.214 17.1918 9.75956 17.7331 9.06523C18.0178 8.69726 18.2433 8.40235 18.4099 8.18016C19.6109 6.58339 20.1317 5.56303 19.9719 5.11869L19.9099 5.01485C19.8682 4.95234 19.7606 4.89515 19.5872 4.84299C19.4135 4.79095 19.1914 4.78234 18.9206 4.81702L15.9217 4.83774C15.8731 4.82052 15.8037 4.82213 15.7133 4.84299L15.5779 4.87432L15.5257 4.9004L15.4843 4.93173C15.4496 4.95245 15.4114 4.98888 15.3697 5.04097C15.3282 5.09287 15.2936 5.15377 15.2658 5.22318C14.9393 6.06318 14.5681 6.84417 14.1515 7.5661C13.8946 7.99659 13.6587 8.36967 13.4433 8.68555C13.2281 9.00133 13.0476 9.23399 12.9019 9.38313C12.756 9.53241 12.6244 9.652 12.5061 9.74235C12.3881 9.83273 12.298 9.87091 12.2355 9.85694C12.173 9.84297 12.1141 9.82911 12.0583 9.81525C11.9612 9.75274 11.8831 9.66772 11.8242 9.56013C11.765 9.45254 11.7252 9.31711 11.7044 9.15397C11.6836 8.99072 11.6714 8.8503 11.6679 8.73224C11.6646 8.61432 11.6661 8.44754 11.6732 8.23235C11.6804 8.01705 11.6836 7.87138 11.6836 7.79501C11.6836 7.53116 11.6888 7.24482 11.6991 6.93589C11.7096 6.62697 11.7181 6.38221 11.7252 6.20188C11.7323 6.02138 11.7356 5.83041 11.7356 5.62908C11.7356 5.42776 11.7233 5.26987 11.6991 5.15527C11.6749 5.04057 11.6384 4.92883 11.5901 4.82202C11.5414 4.71443 11.4701 4.6312 11.3766 4.57211C11.2829 4.5131 11.1664 4.46627 11.0278 4.43147C10.6598 4.34821 10.1912 4.30316 9.62185 4.29616C8.33069 4.2823 7.50105 4.36568 7.13311 4.54618C6.98733 4.62244 6.85541 4.72664 6.73746 4.85846C6.61247 5.01124 6.59504 5.09462 6.68527 5.10833C7.10186 5.17073 7.39677 5.32002 7.57035 5.55603L7.6329 5.68109C7.68155 5.77133 7.73013 5.93108 7.77875 6.16012C7.8273 6.38917 7.85863 6.64255 7.87241 6.9201C7.90706 7.42696 7.90706 7.86084 7.87241 8.22177C7.83765 8.58285 7.80483 8.86394 7.7735 9.06527C7.74217 9.2666 7.69534 9.42974 7.6329 9.55466C7.57035 9.67961 7.52873 9.75599 7.50787 9.78371C7.48704 9.81143 7.46968 9.8289 7.4559 9.83575C7.36618 9.87033 7.27084 9.88803 7.17469 9.88794C7.07742 9.88794 6.95947 9.83929 6.82065 9.74205C6.68188 9.64482 6.53785 9.51126 6.38856 9.34115C6.23928 9.171 6.07092 8.93324 5.88342 8.62782C5.69606 8.3224 5.50166 7.96143 5.30033 7.54491L5.13376 7.24285C5.02963 7.04852 4.88739 6.76557 4.70689 6.39424C4.52628 6.02277 4.36664 5.66344 4.22786 5.31633C4.17238 5.17055 4.08904 5.05957 3.97799 4.98319L3.92587 4.95186C3.89122 4.92414 3.8356 4.89471 3.7593 4.86334C3.68226 4.83186 3.60191 4.80917 3.51978 4.79572L0.666572 4.81644C0.37501 4.81644 0.177184 4.88249 0.073018 5.01441L0.0313299 5.07682C0.0105041 5.11158 0 5.16709 0 5.2435C0 5.31987 0.0208258 5.4136 0.0625139 5.52459C0.47903 6.50351 0.931982 7.4476 1.42137 8.35701C1.91076 9.26642 2.33603 9.99897 2.69692 10.554C3.05789 11.1094 3.42583 11.6337 3.80073 12.1264C4.17563 12.6193 4.42379 12.9352 4.54521 13.074C4.66677 13.213 4.76225 13.317 4.83166 13.3864L5.09204 13.6363C5.25865 13.8029 5.5033 14.0025 5.82612 14.235C6.14901 14.4677 6.50648 14.6967 6.89871 14.9225C7.291 15.1479 7.74738 15.3319 8.2681 15.4742C8.78875 15.6166 9.2955 15.6738 9.78842 15.6462H10.986C11.2288 15.6252 11.4128 15.5488 11.5379 15.417L11.5793 15.3648C11.6072 15.3234 11.6333 15.259 11.6573 15.1724C11.6817 15.0856 11.6938 14.99 11.6938 14.8861C11.6867 14.5876 11.7094 14.3186 11.7614 14.0791C11.8133 13.8397 11.8724 13.6592 11.9386 13.5377C12.0047 13.4162 12.0793 13.3137 12.1624 13.2307C12.2456 13.1474 12.3049 13.0969 12.3397 13.0796C12.3743 13.0621 12.4019 13.0503 12.4227 13.0431C12.5893 12.9876 12.7854 13.0414 13.0112 13.2047C13.2369 13.3678 13.4486 13.5693 13.6465 13.8087C13.8444 14.0483 14.0821 14.3171 14.3597 14.6156C14.6376 14.9142 14.8805 15.1361 15.0886 15.2821L15.2968 15.407C15.4359 15.4904 15.6164 15.5668 15.8386 15.6362C16.0603 15.7056 16.2547 15.7229 16.4215 15.6882L19.0872 15.6467C19.3509 15.6467 19.556 15.603 19.7015 15.5164C19.8474 15.4296 19.934 15.334 19.9619 15.23C19.9898 15.1259 19.9913 15.0078 19.9672 14.8758C19.9425 14.7441 19.9182 14.652 19.894 14.6Z" fill="#011845"/>
</g>
<defs>
<clipPath id="clip0_2009_2268">
<rect width="20" height="20" fill="white"/>
</clipPath>
</defs>
</svg>
