<svg width="20" height="20" viewBox="0 0 20 20" fill="none" xmlns="http://www.w3.org/2000/svg">
<path d="M18.9887 5.49171C18.7726 4.68845 18.1392 4.05525 17.3361 3.83895C15.8689 3.4375 9.99976 3.4375 9.99976 3.4375C9.99976 3.4375 4.1309 3.4375 2.66365 3.82375C1.87595 4.03981 1.2272 4.68859 1.01113 5.49171C0.625 6.95884 0.625 10.0015 0.625 10.0015C0.625 10.0015 0.625 13.0595 1.01113 14.5113C1.2274 15.3144 1.86051 15.9476 2.66377 16.1639C4.14634 16.5655 10 16.5655 10 16.5655C10 16.5655 15.8689 16.5655 17.3361 16.1792C18.1394 15.9631 18.7726 15.3299 18.9889 14.5267C19.3749 13.0595 19.3749 10.0169 19.3749 10.0169C19.3749 10.0169 19.3903 6.95881 18.9887 5.49171ZM8.13115 12.8124V7.19055L13.0116 10.0015L8.13115 12.8124Z" fill="#011845"/>
</svg>
